<?xml version="1.0" standalone="no"?>
<!DOCTYPE svg PUBLIC "-//W3C//DTD SVG 20010904//EN"
 "http://www.w3.org/TR/2001/REC-SVG-20010904/DTD/svg10.dtd">
<svg version="1.0" xmlns="http://www.w3.org/2000/svg"
 width="600.000000pt" height="600.000000pt" viewBox="0 0 600.000000 600.000000"
 preserveAspectRatio="xMidYMid meet">

<g transform="translate(0.000000,600.000000) scale(0.100000,-0.100000)"
fill="#000000" stroke="none">
<path d="M0 3000 l0 -3000 3000 0 3000 0 0 3000 0 3000 -3000 0 -3000 0 0
-3000z m3805 1412 l1740 -7 41 -22 c47 -25 105 -86 132 -140 39 -77 42 -125
42 -732 l0 -588 -212 -6 c-116 -4 -1180 -7 -2365 -7 l-2154 0 63 75 c129 154
256 384 441 801 161 362 228 477 336 582 l66 63 65 -6 c36 -4 848 -10 1805
-13z m1950 -2387 c0 -393 -2 -406 -73 -500 -54 -71 -130 -109 -224 -109 l-71
-1 -27 80 c-72 212 -188 361 -373 475 -445 275 -1028 53 -1202 -460 l-23 -65
-773 -2 c-426 -2 -816 0 -868 5 l-94 7 -22 72 c-42 137 -144 290 -257 384
-342 284 -812 260 -1119 -58 -58 -60 -139 -170 -152 -206 -6 -18 -57 31 -74
72 -57 133 -81 418 -49 565 l17 76 252 1 c507 3 4452 15 4787 15 l345 -1 0
-350z m-4434 -219 c342 -120 438 -537 183 -792 -164 -164 -404 -187 -602 -57
-250 165 -284 517 -72 732 58 59 151 115 216 130 78 18 204 12 275 -13z m3334
-1 c243 -64 402 -294 365 -530 -38 -250 -253 -427 -499 -412 -314 18 -525 320
-432 617 76 242 328 387 566 325z"/>
<path d="M4292 4258 c-8 -8 -12 -63 -12 -190 l0 -178 -175 0 c-232 0 -215 18
-215 -225 0 -243 -17 -225 215 -225 l175 0 0 -178 c0 -125 4 -182 12 -190 17
-17 399 -17 416 0 8 8 12 65 12 190 l0 178 178 0 c161 0 181 2 195 18 25 27
25 392 1 416 -13 13 -45 16 -194 16 l-180 0 -2 188 -3 187 -205 3 c-152 2
-209 -1 -218 -10z"/>
<path d="M1923 4179 c-44 -13 -74 -60 -133 -209 -87 -223 -173 -549 -187 -716
-10 -120 34 -198 124 -223 23 -7 164 -8 385 -4 l349 6 24 29 c44 52 46 82 43
565 -3 425 -4 461 -22 496 -10 21 -26 41 -35 46 -24 13 -510 22 -548 10z m127
-166 c-76 -177 -162 -479 -197 -690 -14 -87 -15 -115 -5 -161 6 -31 10 -58 7
-60 -3 -3 -31 -1 -62 4 -52 8 -60 12 -76 44 -14 28 -17 49 -13 101 17 195 142
624 235 808 l21 41 64 0 64 0 -38 -87z m394 50 c3 -21 6 -227 6 -458 0 -231
-3 -437 -6 -457 l-7 -38 -229 0 c-132 0 -237 4 -248 10 -37 20 -42 124 -14
265 39 197 127 479 195 625 l42 90 127 0 127 0 7 -37z"/>
<path d="M1063 1696 c-100 -32 -186 -105 -225 -191 -19 -41 -23 -67 -23 -145
0 -82 4 -103 28 -154 37 -81 85 -136 143 -168 178 -96 429 -20 510 156 80 175
-3 414 -170 487 -64 28 -200 36 -263 15z m193 -81 c126 -38 209 -181 183 -318
-10 -58 -21 -78 -67 -129 -49 -54 -104 -80 -183 -86 -148 -10 -260 74 -288
218 -42 210 147 377 355 315z"/>
<path d="M1142 1398 c-20 -20 -14 -56 13 -74 23 -15 27 -15 50 0 44 29 28 86
-25 86 -14 0 -31 -5 -38 -12z"/>
<path d="M4475 1690 c-109 -23 -205 -93 -253 -185 -24 -45 -27 -61 -27 -155 0
-97 2 -110 31 -171 38 -81 90 -133 163 -168 48 -22 69 -26 151 -26 86 0 101 3
162 32 86 41 150 105 178 181 32 83 26 213 -13 298 -34 73 -104 145 -168 173
-53 24 -165 34 -224 21z m165 -93 c61 -15 140 -94 163 -161 24 -71 22 -150 -7
-211 -81 -175 -319 -216 -449 -77 -153 164 -66 426 152 462 49 8 68 6 141 -13z"/>
<path d="M4522 1388 c-7 -7 -12 -24 -12 -38 0 -53 57 -69 86 -25 15 23 15 27
0 50 -18 27 -54 33 -74 13z"/>
</g>
</svg>
